<?xml version="1.0" standalone="no"?><!DOCTYPE svg PUBLIC "-//W3C//DTD SVG 1.1//EN" "http://www.w3.org/Graphics/SVG/1.1/DTD/svg11.dtd"><svg t="1653788355355" class="icon" viewBox="0 0 1062 1024" version="1.1" xmlns="http://www.w3.org/2000/svg" p-id="2316" xmlns:xlink="http://www.w3.org/1999/xlink" width="207.421875" height="200"><defs><style type="text/css"></style></defs><path d="M152.733078 67.404765h106.125827v226.591353H152.733078z" fill="#FF8F8F" p-id="2317"></path><path d="M258.858905 272.480114H152.733078a21.511701 21.511701 0 0 1 21.511702 21.511701V67.404765a21.511701 21.511701 0 0 1-21.511702 21.511701h106.125827a21.511701 21.511701 0 0 1-21.511701-21.511701v226.591353a21.511701 21.511701 0 0 1 21.511701-21.516004z m0-226.587051H152.733078a21.511701 21.511701 0 0 0-21.511701 21.511702v226.591353a21.511701 21.511701 0 0 0 21.511701 21.511701h106.125827a21.511701 21.511701 0 0 0 21.511701-21.511701V67.404765a21.511701 21.511701 0 0 0-21.511701-21.511702z" fill="#6E6E96" p-id="2318"></path><path d="M114.012016 21.511701h183.567951v74.572464H114.012016z" fill="#FF8F8F" p-id="2319"></path><path d="M297.579967 74.572463H114.012016a21.511701 21.511701 0 0 1 21.511701 21.511702V21.511701a21.511701 21.511701 0 0 1-21.511701 21.511701h183.567951a21.511701 21.511701 0 0 1-21.511701-21.511701v74.572464a21.511701 21.511701 0 0 1 21.511701-21.511702z m0-74.572463H114.012016a21.511701 21.511701 0 0 0-21.511701 21.511701v74.572464a21.511701 21.511701 0 0 0 21.511701 21.511701h183.567951a21.511701 21.511701 0 0 0 21.511701-21.511701V21.511701a21.511701 21.511701 0 0 0-21.511701-21.511701z" fill="#6E6E96" p-id="2320"></path><path d="M974.781228 1023.956977H98.514987V378.253149l438.13312-241.808731L974.781228 378.253149z" fill="#F0F0FF" p-id="2321"></path><path d="M974.781228 980.933574H98.514987l21.511701 21.511701V356.741448l-11.117247 18.831343L547.042561 133.768363h-20.79321l438.128818 241.80873-11.117247-18.831343V1002.445275l21.520306-21.511701z m10.394454-643.023469L547.042561 96.101374l-10.394454-5.73502-10.398756 5.73502L88.120533 337.910105l-11.117247 6.135137V1023.956977H996.292929V344.040939l-11.117247-6.130834z" fill="#6E6E96" p-id="2322"></path><path d="M536.648107 70.803613L21.511701 340.809882v69.035351h77.003286l438.13312-233.195445 436.932768 236.267316 67.585463 0.912096V340.809882z" fill="#BCC3E3" p-id="2323"></path><path d="M526.662376 51.748548L11.525969 321.754817A21.511701 21.511701 0 0 0 0 340.809882v69.035351a21.503097 21.503097 0 0 0 21.511701 21.511702h77.003286c3.523617 0 6.995605-0.86477 10.106197-2.521172l438.137423-233.195445a21.516004 21.516004 0 0 1-20.341465-0.068838l436.932768 236.267317c3.054662 1.652099 6.466417 2.542683 9.94701 2.590009l67.585463 0.912096a21.524608 21.524608 0 0 0 21.795656-21.511702V340.809882a21.516004 21.516004 0 0 0-11.362481-18.964716L546.80163 51.834595a21.524608 21.524608 0 0 0-20.139254-0.086047zM1019.654636 340.809882v73.019318a21.524608 21.524608 0 0 1 21.795656-21.511701l-67.585463-0.912096a21.468678 21.468678 0 0 1 9.947011 2.590009L546.87477 157.728095a21.524608 21.524608 0 0 0-20.345767-0.068837L88.40879 390.854704a21.503097 21.503097 0 0 1 10.106197-2.521172H21.511701c5.704903 0 11.17748 2.267333 15.213075 6.298626A21.537515 21.537515 0 0 1 43.023402 409.845233V340.809882a21.520306 21.520306 0 0 1-11.525969 19.055065l515.136406-270.006269a21.511701 21.511701 0 0 1-20.139255-0.090349l504.522533 270.006269A21.516004 21.516004 0 0 1 1019.654636 340.809882z" fill="#6E6E96" p-id="2324"></path><path d="M215.117012 537.79253h245.233393v258.140414H215.117012z" fill="#A0C6E8" p-id="2325"></path><path d="M98.514987 899.602134H974.781228V1002.445275H98.514987z" fill="#DBADAD" p-id="2326"></path><path d="M991.990589 1019.654636H81.305626v-137.261863H991.990589V1019.654636z m-876.266241-34.418722H957.571867v-68.424419H115.724348V985.235914zM215.117012 817.444645h245.233393a21.511701 21.511701 0 0 0 21.511702-21.511701v-258.140414a21.511701 21.511701 0 0 0-21.511702-21.511701H215.117012a21.511701 21.511701 0 0 0-21.511701 21.511701v258.140414a21.511701 21.511701 0 0 0 21.511701 21.511701z m0-258.140414h245.233393a21.511701 21.511701 0 0 1-21.511701-21.511701v258.140414a21.511701 21.511701 0 0 1 21.511701-21.511701H215.117012a21.511701 21.511701 0 0 1 21.511701 21.511701v-258.140414a21.511701 21.511701 0 0 1-21.511701 21.511701z" fill="#6E6E96" p-id="2327"></path><path d="M491.125045 1023.956977c0-0.197908 0.030116-0.387211 0.030117-0.589421 0-31.84162-25.818344-57.659964-57.672871-57.659964a57.406126 57.406126 0 0 0-38.359666 14.692492c-7.920608-37.851989-41.47456-66.286156-81.684232-66.286156a83.035167 83.035167 0 0 0-48.934818 15.940171c-17.295408-23.779034-45.264922-39.30618-76.921541-39.306181-43.449334 0-80.019226 29.152657-91.40752 68.9407a61.144859 61.144859 0 0 0-13.255511-1.484307C49.007958 958.212915 21.511701 985.70487 21.511701 1019.628822c0 1.458493 0.120466 2.895475 0.21942 4.328155h469.393924z" fill="#9CD6B2" p-id="2328"></path><path d="M512.636746 1002.673299a13.122138 13.122138 0 0 1-0.043023 1.08419 31.062897 31.062897 0 0 0 0.07314-1.89303c0-43.651544-35.520121-79.167363-79.184572-79.167362a78.999571 78.999571 0 0 0-52.686459 20.169371 21.537515 21.537515 0 0 1 21.051351-4.39269 21.54612 21.54612 0 0 1 14.335398 16.034822c-10.114802-48.310979-53.323205-83.392261-102.739885-83.39226-22.204378 0-43.492357 6.922465-61.566489 20.035998a21.520306 21.520306 0 0 1 30.030335 4.749784c-21.933331-30.159405-57.191009-48.156094-94.320205-48.156095-51.748548 0-97.839519 34.762909-112.088871 84.523777a21.511701 21.511701 0 0 1 25.310668-15.084005 82.536095 82.536095 0 0 0-17.880526-1.983379C37.198034 915.189513 0 952.387547 0 998.117121c0 2.009193 0.124768 3.790362 0.228024 5.223041l0.038721 0.585118A21.54612 21.54612 0 0 0 21.731121 1023.956977h469.398227a21.511701 21.511701 0 0 0 21.507398-21.283678z m-469.445552-1.708029l-0.047326-0.671165c-0.060233-0.869073-0.120466-1.699424-0.120466-2.176984 0-22.002168 17.902038-39.895601 39.899904-39.895601 2.796521 0 5.700601 0.322676 8.626192 0.968027a21.511701 21.511701 0 0 0 25.310668-15.084005c8.991891-31.411386 38.075711-53.340414 70.726171-53.340414 23.409033 0 45.660737 11.383992 59.522877 30.443359a21.498794 21.498794 0 0 0 30.030335 4.749784 61.450326 61.450326 0 0 1 36.298844-11.840041c29.165564 0 54.665535 20.68135 60.628579 49.184354a21.554725 21.554725 0 0 0 14.335398 16.043427 21.477282 21.477282 0 0 0 21.05135-4.39269 36.079425 36.079425 0 0 1 24.032873-9.232822c19.937045 0 36.16117 16.224125 36.16117 36.14396 0-0.511978 0.004302-0.765817 0.043023-1.286399a21.511701 21.511701 0 0 1 21.438562-19.631579H21.731121a21.516004 21.516004 0 0 1 21.460073 20.018789z" fill="#6E6E96" p-id="2329"></path><path d="M576.513592 538.511021h278.223738V1002.445275H576.513592z" fill="#FF8F8F" p-id="2330"></path><path d="M854.73733 980.933574H576.513592a21.511701 21.511701 0 0 1 21.511701 21.511701V538.511021c0 11.887366-9.628637 21.511701-21.511701 21.511701h278.223738c-11.883064 0-21.511701-9.624335-21.511701-21.511701V1002.445275a21.511701 21.511701 0 0 1 21.511701-21.511701z m0-463.934255H576.513592c-11.883064 0-21.511701 9.624335-21.511701 21.511702V1002.445275a21.511701 21.511701 0 0 0 21.511701 21.511702h278.223738a21.511701 21.511701 0 0 0 21.511702-21.511702V538.511021c0-11.887366-9.628637-21.511701-21.511702-21.511702z" fill="#6E6E96" p-id="2331"></path><path d="M750.758371 751.476862v34.418722c0 11.887366 9.628637 21.511701 21.511702 21.511701s21.511701-9.624335 21.511701-21.511701v-34.418722c0-11.887366-9.628637-21.511701-21.511701-21.511701s-21.511701 9.624335-21.511702 21.511701z" fill="#6E6E96" p-id="2332"></path><path d="M120.026688 474.690105L533.490189 253.838074l419.779337 220.852031V426.387732l-406.510919-230.751717L108.621184 428.831461zM598.025293 560.022722h235.200336v36.569892H598.025293zM598.025293 596.592614h45.174573V980.933574H598.025293zM174.24478 117.595866h63.102424v35.851401H174.24478zM223.721692 32.986043h52.346574v41.590723H223.721692z" fill="#6E6E96" opacity=".15" p-id="2333"></path><path d="M236.628713 774.421243l202.209991-215.117012H318.373178l-86.046805 86.046805z" fill="#FFFFFF" opacity=".37" p-id="2334"></path><path d="M460.350405 645.351036H215.117012a21.511701 21.511701 0 1 0 0 43.023402h245.233393a21.511701 21.511701 0 1 0 0-43.023402z" fill="#6E6E96" p-id="2335"></path><path d="M361.39658 795.932944v-258.140414a21.511701 21.511701 0 1 0-43.023402 0v258.140414a21.511701 21.511701 0 1 0 43.023402 0z" fill="#6E6E96" p-id="2336"></path></svg>